<svg width="20" height="20" viewBox="0 0 20 20" fill="none" xmlns="http://www.w3.org/2000/svg">
<path d="M14.1667 2.5V5M14.1667 5C14.9434 5 15.3317 5 15.6375 5.12667C15.8399 5.21043 16.0237 5.33325 16.1786 5.4881C16.3334 5.64296 16.4563 5.82682 16.54 6.02917C16.6667 6.335 16.6667 6.72333 16.6667 7.5C16.6667 8.27667 16.6667 8.665 16.54 8.97083C16.4563 9.17318 16.3334 9.35704 16.1786 9.5119C16.0237 9.66675 15.8399 9.78957 15.6375 9.87333C15.3317 10 14.9434 10 14.1667 10C13.39 10 13.0017 10 12.6959 9.87333C12.4935 9.78957 12.3096 9.66675 12.1548 9.5119C11.9999 9.35704 11.8771 9.17318 11.7934 8.97083C11.6667 8.665 11.6667 8.27667 11.6667 7.5C11.6667 6.72333 11.6667 6.335 11.7934 6.02917C11.8771 5.82682 11.9999 5.64296 12.1548 5.4881C12.3096 5.33325 12.4935 5.21043 12.6959 5.12667C13.0017 5 13.39 5 14.1667 5ZM5.83335 2.5L5.83335 7.5M5.83335 15L5.83335 17.5M5.83335 15C6.61002 15 6.99835 15 7.30419 14.8733C7.50654 14.7896 7.69039 14.6668 7.84525 14.5119C8.00011 14.357 8.12293 14.1732 8.20669 13.9708C8.33335 13.665 8.33335 13.2767 8.33335 12.5C8.33335 11.7233 8.33335 11.335 8.20669 11.0292C8.12293 10.8268 8.00011 10.643 7.84525 10.4881C7.69039 10.3332 7.50654 10.2104 7.30419 10.1267C6.99835 10 6.61002 10 5.83335 10C5.05669 10 4.66835 10 4.36252 10.1267C4.16017 10.2104 3.97631 10.3332 3.82146 10.4881C3.6666 10.643 3.54378 10.8268 3.46002 11.0292C3.33335 11.335 3.33335 11.7233 3.33335 12.5C3.33335 13.2767 3.33335 13.665 3.46002 13.9708C3.54378 14.1732 3.6666 14.357 3.82146 14.5119C3.97631 14.6668 4.16017 14.7896 4.36252 14.8733C4.66835 15 5.05669 15 5.83335 15ZM14.1667 12.5L14.1667 17.5" stroke="black" stroke-linecap="round" stroke-linejoin="round"/>
</svg>
