<svg width="24" height="23" viewBox="0 0 24 23" fill="none" xmlns="http://www.w3.org/2000/svg">
<path d="M8 18H16M13.4075 1.08001C17.025 2.68551 19.767 4.79501 21.1845 6.01351C21.901 6.62951 22.3005 7.51601 22.3495 8.45951C22.418 9.75501 22.5 11.7825 22.5 14C22.5 15.706 22.4515 17.353 22.398 18.6465C22.3705 19.3667 22.0706 20.0496 21.5591 20.5572C21.0475 21.0649 20.3624 21.3595 19.642 21.3815C17.912 21.4415 15.3445 21.5 12 21.5C8.6555 21.5 6.0885 21.441 4.358 21.382C3.63763 21.36 2.95247 21.0654 2.44091 20.5577C1.92935 20.0501 1.62953 19.3672 1.602 18.647C1.5367 17.0989 1.50269 15.5495 1.5 14C1.5 11.7825 1.5825 9.75501 1.65 8.45951C1.7 7.51601 2.099 6.62951 2.8155 6.01351C4.233 4.79451 6.9755 2.68551 10.5925 1.08001C11.0357 0.883347 11.5151 0.781738 12 0.781738C12.4849 0.781738 12.9643 0.883347 13.4075 1.08001Z" stroke="black" stroke-width="1.5" stroke-linecap="round" stroke-linejoin="round"/>
</svg>
