<svg width="24" height="23" viewBox="0 0 24 23" fill="none" xmlns="http://www.w3.org/2000/svg">
<path fill-rule="evenodd" clip-rule="evenodd" d="M10.284 0.406098C10.8225 0.15974 11.4078 0.0322266 12 0.0322266C12.5922 0.0322266 13.1775 0.15974 13.716 0.406098C17.599 2.1841 20.4915 4.7271 21.8845 6.0991C22.6355 6.8386 23.037 7.8246 23.0935 8.8421C23.1625 10.0956 23.25 12.1286 23.25 14.4216C23.25 16.0396 23.2065 17.5276 23.1565 18.7036C23.1201 19.6071 22.7424 20.4632 22.0996 21.0992C21.4569 21.7351 20.5968 22.1037 19.693 22.1306C17.954 22.1906 15.3695 22.2501 12 22.2501C8.6305 22.2501 6.046 22.1901 4.307 22.1306C3.40317 22.1037 2.54314 21.7351 1.90038 21.0992C1.25761 20.4632 0.879928 19.6071 0.8435 18.7036C0.782366 17.2771 0.751193 15.8494 0.75 14.4216C0.75 12.1286 0.8375 10.0956 0.9065 8.8421C0.963 7.8246 1.3645 6.8386 2.1155 6.0991C3.5085 4.7271 6.4015 2.1841 10.284 0.406098ZM8 17.0001C7.73478 17.0001 7.48043 17.1055 7.29289 17.293C7.10536 17.4805 7 17.7349 7 18.0001C7 18.2653 7.10536 18.5197 7.29289 18.7072C7.48043 18.8947 7.73478 19.0001 8 19.0001H16C16.2652 19.0001 16.5196 18.8947 16.7071 18.7072C16.8946 18.5197 17 18.2653 17 18.0001C17 17.7349 16.8946 17.4805 16.7071 17.293C16.5196 17.1055 16.2652 17.0001 16 17.0001H8Z" fill="#E65100"/>
</svg>
