<svg width="17" height="20" viewBox="0 0 17 20" fill="none" xmlns="http://www.w3.org/2000/svg">
<path d="M12.315 3V4.25H12.727C14.178 4.25 15.407 5.351 15.513 6.803L16.243 16.803C16.36 18.412 15.061 19.75 13.457 19.75H3.54296C1.93896 19.75 0.639965 18.412 0.756965 16.803L1.48696 6.803C1.59296 5.35 2.82196 4.25 4.27296 4.25H4.68497V3C4.68497 1.466 5.95096 0.25 7.47896 0.25H9.52197C11.049 0.25 12.315 1.466 12.315 3ZM6.18497 3V4.25H10.815V3C10.815 2.325 10.251 1.75 9.52197 1.75H7.47896C6.74896 1.75 6.18497 2.325 6.18497 3Z" fill="#E65100"/>
</svg>
