<svg width="22" height="19" viewBox="0 0 22 19" fill="none" xmlns="http://www.w3.org/2000/svg">
<path fill-rule="evenodd" clip-rule="evenodd" d="M4.624 2.17309C2.965 2.93109 1.75 4.73509 1.75 6.88609C1.75 9.08309 2.65 10.7771 3.938 12.2291C5.001 13.4251 6.287 14.4171 7.541 15.3831C7.83967 15.6131 8.13467 15.8424 8.426 16.0711C8.952 16.4861 9.421 16.8491 9.874 17.1141C10.327 17.3791 10.69 17.4991 11 17.4991C11.31 17.4991 11.674 17.3791 12.126 17.1141C12.579 16.8491 13.048 16.4861 13.574 16.0711C13.8653 15.8418 14.1603 15.6128 14.459 15.3841C15.713 14.4161 16.999 13.4251 18.062 12.2291C19.351 10.7771 20.25 9.08309 20.25 6.88609C20.25 4.73609 19.035 2.93109 17.376 2.17309C15.764 1.43609 13.598 1.63109 11.54 3.77009C11.47 3.84268 11.3862 3.90042 11.2934 3.93985C11.2006 3.97929 11.1008 3.99961 11 3.99961C10.8992 3.99961 10.7994 3.97929 10.7066 3.93985C10.6138 3.90042 10.53 3.84268 10.46 3.77009C8.402 1.63109 6.236 1.43609 4.624 2.17309ZM11 2.20909C8.688 0.139092 6.099 -0.150908 4 0.808092C1.786 1.82309 0.25 4.17509 0.25 6.88709C0.25 9.55209 1.36 11.5861 2.817 13.2261C3.983 14.5391 5.41 15.6381 6.671 16.6081C6.95767 16.8281 7.233 17.0421 7.497 17.2501C8.01 17.6541 8.56 18.0841 9.117 18.4101C9.674 18.7361 10.31 19.0001 11 19.0001C11.69 19.0001 12.326 18.7351 12.883 18.4101C13.441 18.0841 13.99 17.6541 14.503 17.2501C14.767 17.0421 15.0423 16.8281 15.329 16.6081C16.589 15.6381 18.017 14.5381 19.183 13.2261C20.64 11.5861 21.75 9.55209 21.75 6.88709C21.75 4.17509 20.215 1.82309 18 0.810093C15.901 -0.149907 13.312 0.140092 11 2.20909Z" fill="black"/>
</svg>
